# Blender v2.82 (sub 7) OBJ File: ''
# www.blender.org
mtllib pack.mtl
o Cube
v 1.731978 1.000000 -1.000000
v 1.731978 -1.000000 -1.000000
v 1.731978 1.000000 1.000000
v 1.731978 -1.000000 1.000000
v -1.731978 1.000000 -1.000000
v -1.731978 -1.000000 -1.000000
v -1.731978 1.000000 1.000000
v -1.731978 -1.000000 1.000000
v 0.916941 2.032391 0.529418
v -0.916941 2.032391 0.529418
v 0.916941 2.032391 -0.529418
v -0.916941 2.032391 -0.529418
v -0.948492 -1.948751 -0.547635
v -0.948492 -1.948751 0.547635
v 0.948492 -1.948751 -0.547635
v 0.948492 -1.948751 0.547635
v 0.916941 3.159167 0.529418
v -0.916941 3.159167 0.529418
v 0.916941 3.159167 -0.529418
v -0.916941 3.159167 -0.529418
vt 0.625000 1.000000
vt 0.625000 0.750000
vt 0.625000 0.750000
vt 0.625000 1.000000
vt 0.375000 0.750000
vt 0.375000 1.000000
vt 0.375000 0.000000
vt 0.625000 0.000000
vt 0.625000 0.250000
vt 0.375000 0.250000
vt 0.375000 1.000000
vt 0.375000 0.750000
vt 0.375000 0.500000
vt 0.625000 0.500000
vt 0.625000 0.500000
vt 0.625000 0.250000
vt 0.625000 0.250000
vt 0.625000 0.500000
vt 0.625000 0.000000
vt 0.125000 0.500000
vt 0.375000 0.500000
vt 0.125000 0.750000
vt 0.375000 0.250000
vt 0.375000 0.000000
vt 0.875000 0.500000
vt 0.875000 0.750000
vt 0.625000 0.750000
vt 0.625000 0.000000
vt 0.625000 1.000000
vn 0.0000 0.4148 0.9099
vn 0.0000 0.0000 1.0000
vn -1.0000 0.0000 0.0000
vn 0.0000 -0.4304 0.9026
vn 1.0000 0.0000 0.0000
vn 0.0000 0.0000 -1.0000
vn -0.7849 0.6196 0.0000
vn 0.7849 0.6196 0.0000
vn 0.0000 0.4148 -0.9099
vn 0.0000 -1.0000 0.0000
vn -0.7711 -0.6368 0.0000
vn 0.7711 -0.6368 0.0000
vn 0.0000 -0.4304 -0.9026
vn 0.0000 1.0000 0.0000
usemtl Material
s off
f 7/1/1 3/2/1 9/3/1 10/4/1
f 4/5/2 3/2/2 7/1/2 8/6/2
f 8/7/3 7/8/3 5/9/3 6/10/3
f 4/5/4 8/6/4 14/11/4 16/12/4
f 2/13/5 1/14/5 3/2/5 4/5/5
f 6/10/6 5/9/6 1/14/6 2/13/6
f 11/15/6 12/16/6 20/17/6 19/18/6
f 5/9/7 7/8/7 10/19/7 12/16/7
f 3/2/8 1/14/8 11/15/8 9/3/8
f 1/14/9 5/9/9 12/16/9 11/15/9
f 13/20/10 15/21/10 16/12/10 14/22/10
f 8/7/11 6/10/11 13/23/11 14/24/11
f 2/13/12 4/5/12 16/12/12 15/21/12
f 6/10/13 2/13/13 15/21/13 13/23/13
f 19/18/14 20/25/14 18/26/14 17/27/14
f 9/3/5 11/15/5 19/18/5 17/27/5
f 12/16/3 10/19/3 18/28/3 20/17/3
f 10/4/2 9/3/2 17/27/2 18/29/2
